<?xml version="1.0" encoding="UTF-8"?>
<svg width="412px" height="93px" viewBox="0 0 412 93" version="1.1" xmlns="http://www.w3.org/2000/svg" xmlns:xlink="http://www.w3.org/1999/xlink">
    <!-- Generator: Sketch 40.3 (33839) - http://www.bohemiancoding.com/sketch -->
    <title>fc-logo</title>
    <desc>Created with Sketch.</desc>
    <defs>
        <polygon id="path-1" points="0.06 0.241 0.06 45.262 34.197 45.262 34.197 0.241 0.06 0.241"></polygon>
    </defs>
    <g id="Page-1" stroke="none" stroke-width="1" fill="none" fill-rule="evenodd">
        <g id="fc-logo">
            <g id="Group-3" transform="translate(0.000000, 11.000000)">
                <mask id="mask-2" fill="white">
                    <use xlink:href="#path-1"></use>
                </mask>
                <g id="Clip-2"></g>
                <path d="M34.197,0.931 L34.197,11.341 C34.197,11.721 33.888,12.031 33.508,12.031 L32.303,12.031 C31.996,12.031 31.724,11.816 31.639,11.519 C29.92,5.483 28.564,3.068 21.855,3.068 L17.374,3.068 C15.512,3.068 15.099,3.481 15.099,5.412 L15.099,20.58 C15.099,20.961 15.408,21.27 15.789,21.27 L22.545,21.27 C26.776,21.27 27.584,20.001 28.495,15.824 C28.564,15.507 28.844,15.271 29.169,15.271 L30.336,15.271 C30.717,15.271 31.025,15.58 31.025,15.961 L31.025,29.75 C31.025,30.131 30.717,30.44 30.336,30.44 L29.167,30.44 C28.843,30.44 28.563,30.203 28.493,29.887 C27.583,25.77 26.774,24.441 22.545,24.441 L15.789,24.441 C15.408,24.441 15.099,24.75 15.099,25.131 L15.099,38.988 C15.099,42.234 15.48,42.616 20.768,42.824 C21.138,42.839 21.441,43.142 21.441,43.513 L21.441,44.572 C21.441,44.953 21.133,45.262 20.753,45.262 L0.689,45.262 C0.309,45.262 0,44.953 0,44.572 L0,43.507 C0,43.138 0.298,42.837 0.666,42.819 C4.871,42.609 5.309,42.205 5.309,38.988 L5.309,6.515 C5.309,3.299 4.871,2.894 0.666,2.685 C0.298,2.667 0,2.365 0,1.997 L0,0.931 C0,0.55 0.309,0.241 0.689,0.241 L33.508,0.241 C33.888,0.241 34.197,0.55 34.197,0.931" id="Fill-1" fill="#006592" mask="url(#mask-2)"></path>
            </g>
            <path d="M52.328,54.262 C57.222,54.262 59.291,49.091 59.291,40.405 C59.291,31.649 57.222,26.477 52.328,26.477 C47.433,26.477 45.364,31.649 45.364,40.474 C45.364,49.091 47.433,54.262 52.328,54.262 L52.328,54.262 Z M68.806,40.405 C68.806,50.815 63.773,57.09 52.328,57.09 C40.882,57.09 35.849,50.815 35.849,40.405 C35.849,29.994 40.882,23.651 52.396,23.651 C63.773,23.651 68.806,29.994 68.806,40.405 L68.806,40.405 Z" id="Fill-4" fill="#006592"></path>
            <path d="M82.039,34.613 C82.039,39.301 84.176,42.197 87.348,42.197 C90.656,42.197 92.518,39.301 92.518,34.544 C92.518,28.891 90.312,26.477 87.279,26.477 C84.382,26.477 82.039,28.822 82.039,34.613 L82.039,34.613 Z M97,62.742 C97,58.675 93.828,57.296 87.83,57.296 C84.107,57.296 82.384,57.711 81.418,58.4 C80.315,59.158 79.419,60.261 79.419,62.123 C79.419,66.742 83.969,69.43 88.726,69.43 C93.07,69.43 97,67.362 97,62.742 L97,62.742 Z M104.721,23.651 L105.411,24.34 L104.24,28.533 C104.158,28.827 103.892,29.032 103.586,29.037 L100.84,29.079 C100.338,29.087 100.002,29.613 100.23,30.06 C100.835,31.25 101.274,32.917 101.274,34.544 C101.274,42.335 94.379,45.092 87.071,45.092 C86.313,45.092 84.935,45.024 83.969,44.886 C83.073,45.092 81.142,45.782 81.142,47.299 C81.142,48.54 82.246,49.781 85.762,49.781 L91.691,49.781 C98.447,49.781 104.308,51.712 104.308,59.503 C104.308,64.397 101.619,67.845 98.241,69.707 C94.932,71.499 90.726,72.257 87.485,72.257 C78.247,72.257 71.973,69.086 71.973,62.742 C71.973,58.33 76.73,56.951 79.557,56.469 L79.557,56.331 C76.454,55.78 73.559,53.436 73.559,50.264 C73.559,47.644 76.385,45.369 80.453,44.266 L80.453,44.127 C76.73,43.438 72.8,40.405 72.8,34.544 C72.8,29.236 76.178,23.651 87.554,23.651 C90.813,23.651 94.392,24.422 96.56,25.651 C96.715,25.739 96.889,25.762 97.062,25.715 L104.721,23.651 L104.721,23.651 Z" id="Fill-5" fill="#006592"></path>
            <path d="M161.203,42.795 L160.45,53.952 C160.435,54.189 160.307,54.404 160.099,54.518 C156.329,56.585 150.019,57.365 145.464,57.365 C128.641,57.365 121.609,48.54 121.609,34.199 C121.609,27.305 123.401,21.375 127.331,16.963 C131.192,12.689 137.466,10.069 146.36,10.069 C150.099,10.069 156.295,10.78 160.064,12.767 C160.291,12.886 160.425,13.126 160.425,13.383 L160.425,23.651 C160.425,24.032 160.116,24.34 159.735,24.34 L158.522,24.34 C158.218,24.34 157.953,24.14 157.865,23.851 C156.078,17.99 153.457,12.965 145.809,12.965 C133.95,12.965 132.502,27.236 132.502,33.304 C132.502,40.819 134.294,54.538 146.291,54.538 C153.705,54.538 156.375,49.334 158.681,42.53 C158.775,42.251 159.037,42.059 159.332,42.059 L160.515,42.059 C160.914,42.059 161.23,42.397 161.203,42.795" id="Fill-6" fill="#006592"></path>
            <path d="M178.485,50.539 C178.485,53.308 178.989,53.555 183.49,53.873 C183.852,53.899 184.139,54.199 184.139,54.561 L184.139,55.572 C184.139,55.953 183.83,56.262 183.449,56.262 L165.799,56.262 C165.418,56.262 165.11,55.953 165.11,55.572 L165.11,54.558 C165.11,54.197 165.392,53.899 165.751,53.87 C169.086,53.611 169.454,53.27 169.454,50.539 L169.454,31.304 C169.454,28.822 168.971,28.271 167.799,28.132 L166.109,27.876 C165.772,27.825 165.523,27.535 165.523,27.195 L165.523,26.173 C165.523,25.833 165.771,25.543 166.107,25.491 L176.826,23.827 C177.207,23.768 177.563,24.033 177.614,24.416 L178.093,27.936 C178.169,28.497 178.856,28.728 179.261,28.332 C182.571,25.089 184.504,23.651 186.896,23.651 C189.585,23.651 191.24,25.375 191.24,27.926 C191.24,30.408 189.654,33.165 186.965,33.165 C185.932,33.165 185.311,32.614 184.553,32.131 C183.173,31.097 182.209,30.545 181.174,30.545 C179.588,30.545 178.485,32.27 178.485,35.993 L178.485,50.539" id="Fill-7" fill="#006592"></path>
            <path d="M212.129,36.82 C213.713,36.82 214.197,36.338 214.197,34.683 C214.197,31.786 213.438,26.477 209.025,26.477 C204.523,26.477 203.17,31.913 203.039,36.12 C203.027,36.506 203.346,36.82 203.732,36.82 L212.129,36.82 L212.129,36.82 Z M203.723,39.853 C203.34,39.853 203.024,40.168 203.028,40.55 C203.107,47.008 205.263,52.47 211.853,52.47 C215.819,52.47 218.437,50.445 220.284,47.09 C220.468,46.755 220.882,46.621 221.218,46.804 L222.345,47.42 C222.652,47.587 222.792,47.963 222.661,48.287 C220.529,53.556 216.484,57.09 209.164,57.09 C197.374,57.158 193.513,49.644 193.513,40.405 C193.513,31.236 197.925,23.651 209.232,23.651 C221.643,23.651 223.366,32.131 223.366,37.096 C223.366,39.164 222.262,39.853 220.126,39.853 L203.723,39.853 L203.723,39.853 Z" id="Fill-8" fill="#006592"></path>
            <path d="M246.184,36.82 C247.769,36.82 248.252,36.338 248.252,34.683 C248.252,31.786 247.493,26.477 243.081,26.477 C238.578,26.477 237.225,31.913 237.094,36.12 C237.082,36.507 237.401,36.82 237.787,36.82 L246.184,36.82 L246.184,36.82 Z M237.778,39.853 C237.395,39.853 237.079,40.168 237.084,40.55 C237.163,47.008 239.319,52.47 245.908,52.47 C249.875,52.47 252.493,50.445 254.339,47.09 C254.524,46.755 254.938,46.621 255.274,46.804 L256.401,47.42 C256.708,47.587 256.847,47.963 256.716,48.287 C254.585,53.556 250.54,57.09 243.219,57.09 C231.429,57.158 227.569,49.644 227.569,40.405 C227.569,31.236 231.981,23.651 243.288,23.651 C255.699,23.651 257.421,32.131 257.421,37.096 C257.421,39.164 256.318,39.853 254.181,39.853 L237.778,39.853 L237.778,39.853 Z" id="Fill-9" fill="#006592"></path>
            <path d="M280.998,26.271 C282.239,24.754 282.721,24.479 284.376,24.479 L292.581,24.479 C292.961,24.479 293.27,24.788 293.27,25.169 L293.27,25.968 C293.27,26.303 293.017,26.59 292.687,26.648 C286.659,27.706 284.597,28.597 282.86,30.2 C281.757,31.236 280.24,32.889 278.861,34.544 C278.723,34.752 278.654,35.028 278.861,35.372 C281.826,40.405 285.755,45.989 289.891,50.747 C291.62,52.721 292.906,53.591 294.196,54.098 C294.465,54.204 294.65,54.455 294.65,54.745 L294.65,55.641 C294.65,56.022 294.341,56.331 293.96,56.331 L288.927,56.331 C284.79,56.262 282.308,55.366 280.033,52.47 C276.93,48.678 274.241,43.921 271.966,39.715 L271.966,39.233 C273.551,37.027 278.793,28.96 280.998,26.271 L280.998,26.271 Z M262.589,15.723 C262.589,13.102 262.108,12.62 260.935,12.413 L259.161,12.1 C258.831,12.042 258.59,11.756 258.59,11.421 L258.59,10.397 C258.59,10.051 258.847,9.759 259.19,9.714 L271.138,8.138 L271.552,8.483 L271.552,50.539 C271.552,53.264 271.98,53.609 275.244,53.812 C275.609,53.834 275.896,54.134 275.896,54.5 L275.896,55.572 C275.896,55.953 275.587,56.262 275.207,56.262 L258.867,56.262 C258.486,56.262 258.177,55.953 258.177,55.572 L258.177,54.501 C258.177,54.135 258.466,53.835 258.832,53.813 C262.222,53.61 262.589,53.269 262.589,50.539 L262.589,15.723 L262.589,15.723 Z" id="Fill-10" fill="#006592"></path>
            <path d="M151.063,71.228 C150.923,71.452 150.776,71.62 150.622,71.732 C150.468,71.844 150.27,71.9 150.027,71.9 C149.813,71.9 149.582,71.833 149.334,71.697 C149.087,71.562 148.807,71.41 148.494,71.242 C148.181,71.074 147.824,70.923 147.423,70.787 C147.022,70.652 146.564,70.584 146.051,70.584 C145.165,70.584 144.504,70.773 144.07,71.151 C143.636,71.529 143.419,72.04 143.419,72.684 C143.419,73.095 143.55,73.435 143.811,73.706 C144.072,73.977 144.416,74.21 144.84,74.406 C145.265,74.602 145.75,74.782 146.296,74.945 C146.842,75.108 147.4,75.291 147.969,75.491 C148.538,75.692 149.096,75.927 149.642,76.198 C150.188,76.468 150.673,76.814 151.098,77.234 C151.523,77.654 151.866,78.165 152.127,78.767 C152.388,79.369 152.519,80.095 152.519,80.944 C152.519,81.887 152.356,82.769 152.029,83.591 C151.702,84.412 151.229,85.128 150.608,85.739 C149.987,86.35 149.222,86.831 148.312,87.181 C147.402,87.531 146.368,87.706 145.211,87.706 C144.576,87.706 143.93,87.64 143.272,87.51 C142.614,87.38 141.977,87.195 141.361,86.957 C140.745,86.719 140.167,86.437 139.625,86.11 C139.084,85.784 138.612,85.42 138.211,85.018 L139.611,82.806 C139.714,82.638 139.858,82.503 140.045,82.4 C140.232,82.298 140.432,82.246 140.647,82.246 C140.927,82.246 141.21,82.335 141.494,82.512 C141.779,82.689 142.101,82.885 142.46,83.1 C142.819,83.315 143.232,83.511 143.699,83.688 C144.166,83.866 144.716,83.954 145.351,83.954 C146.21,83.954 146.877,83.765 147.353,83.387 C147.829,83.01 148.067,82.41 148.067,81.589 C148.067,81.112 147.937,80.725 147.675,80.426 C147.414,80.128 147.071,79.881 146.646,79.684 C146.221,79.488 145.738,79.315 145.197,79.166 C144.656,79.017 144.1,78.851 143.531,78.669 C142.962,78.487 142.406,78.263 141.865,77.997 C141.324,77.731 140.841,77.382 140.416,76.947 C139.991,76.513 139.648,75.972 139.387,75.323 C139.126,74.674 138.995,73.874 138.995,72.923 C138.995,72.157 139.149,71.41 139.457,70.682 C139.765,69.954 140.218,69.305 140.815,68.736 C141.412,68.167 142.145,67.712 143.013,67.371 C143.881,67.031 144.875,66.86 145.995,66.86 C146.62,66.86 147.23,66.909 147.822,67.007 C148.415,67.105 148.977,67.25 149.509,67.441 C150.041,67.633 150.538,67.861 151,68.127 C151.462,68.393 151.875,68.694 152.239,69.03 L151.063,71.228" id="Fill-11" fill="#7C9095"></path>
            <path d="M170.717,77.276 C170.717,76.268 170.586,75.36 170.325,74.553 C170.064,73.746 169.688,73.062 169.198,72.502 C168.708,71.942 168.108,71.513 167.399,71.215 C166.689,70.916 165.882,70.766 164.977,70.766 C164.062,70.766 163.248,70.916 162.534,71.215 C161.82,71.513 161.218,71.942 160.728,72.502 C160.238,73.062 159.862,73.746 159.601,74.553 C159.34,75.36 159.209,76.268 159.209,77.276 C159.209,78.294 159.34,79.206 159.601,80.013 C159.862,80.821 160.238,81.505 160.728,82.064 C161.218,82.624 161.82,83.051 162.534,83.345 C163.248,83.639 164.062,83.786 164.977,83.786 C165.882,83.786 166.689,83.639 167.399,83.345 C168.108,83.051 168.708,82.624 169.198,82.064 C169.688,81.505 170.064,80.821 170.325,80.013 C170.586,79.206 170.717,78.294 170.717,77.276 L170.717,77.276 Z M175.561,77.276 C175.561,78.751 175.307,80.123 174.798,81.392 C174.289,82.662 173.573,83.765 172.649,84.703 C171.725,85.641 170.612,86.376 169.31,86.908 C168.008,87.44 166.564,87.706 164.977,87.706 C163.39,87.706 161.944,87.44 160.637,86.908 C159.33,86.376 158.212,85.641 157.284,84.703 C156.355,83.765 155.637,82.662 155.128,81.392 C154.619,80.123 154.365,78.751 154.365,77.276 C154.365,75.801 154.619,74.429 155.128,73.16 C155.637,71.891 156.355,70.79 157.284,69.856 C158.212,68.923 159.33,68.19 160.637,67.658 C161.944,67.126 163.39,66.86 164.977,66.86 C166.564,66.86 168.008,67.129 169.31,67.665 C170.612,68.202 171.725,68.937 172.649,69.87 C173.573,70.803 174.289,71.905 174.798,73.174 C175.307,74.443 175.561,75.811 175.561,77.276 L175.561,77.276 Z" id="Fill-12" fill="#7C9095"></path>
            <polyline id="Fill-13" fill="#7C9095" points="190.941 67.084 190.941 70.724 182.569 70.724 182.569 75.89 189.541 75.89 189.541 79.544 182.569 79.544 182.569 87.482 177.809 87.482 177.809 67.084 190.941 67.084"></polyline>
            <polyline id="Fill-14" fill="#7C9095" points="209.881 67.084 209.881 70.836 204.141 70.836 204.141 87.482 199.41 87.482 199.41 70.836 193.669 70.836 193.669 67.084 209.881 67.084"></polyline>
            <path d="M212.282,67.084 L216.257,67.084 C216.668,67.084 217.011,67.177 217.287,67.364 C217.562,67.551 217.742,67.799 217.826,68.106 L220.626,78.746 C220.718,79.091 220.812,79.46 220.906,79.852 C220.999,80.244 221.069,80.655 221.116,81.084 C221.209,80.645 221.311,80.232 221.423,79.845 C221.536,79.458 221.642,79.091 221.746,78.746 L225.049,68.106 C225.133,67.845 225.313,67.609 225.588,67.399 C225.864,67.189 226.198,67.084 226.589,67.084 L227.99,67.084 C228.4,67.084 228.739,67.176 229.004,67.357 C229.27,67.539 229.455,67.789 229.557,68.106 L232.834,78.746 C232.936,79.073 233.043,79.421 233.156,79.789 C233.267,80.158 233.366,80.552 233.45,80.972 C233.524,80.561 233.601,80.17 233.68,79.797 C233.759,79.423 233.841,79.073 233.925,78.746 L236.725,68.106 C236.8,67.836 236.977,67.597 237.257,67.392 C237.538,67.187 237.874,67.084 238.265,67.084 L241.99,67.084 L235.689,87.482 L231.406,87.482 L227.57,74.84 C227.504,74.644 227.436,74.429 227.367,74.196 C227.296,73.963 227.229,73.715 227.164,73.454 C227.098,73.715 227.031,73.963 226.96,74.196 C226.89,74.429 226.823,74.644 226.757,74.84 L222.866,87.482 L218.582,87.482 L212.282,67.084" id="Fill-15" fill="#7C9095"></path>
            <path d="M247.33,79.684 L252.901,79.684 L251.025,74.098 C250.904,73.744 250.761,73.326 250.598,72.845 C250.435,72.365 250.274,71.844 250.116,71.284 C249.966,71.853 249.812,72.381 249.653,72.866 C249.495,73.351 249.345,73.771 249.206,74.126 L247.33,79.684 L247.33,79.684 Z M260.433,87.482 L256.765,87.482 C256.354,87.482 256.016,87.386 255.751,87.195 C255.484,87.004 255.3,86.758 255.198,86.46 L253.994,82.904 L246.237,82.904 L245.034,86.46 C244.94,86.721 244.758,86.957 244.487,87.167 C244.216,87.377 243.885,87.482 243.494,87.482 L239.797,87.482 L247.693,67.084 L252.538,67.084 L260.433,87.482 L260.433,87.482 Z" id="Fill-16" fill="#7C9095"></path>
            <path d="M267.418,76.674 L269.322,76.674 C269.965,76.674 270.514,76.592 270.966,76.429 C271.419,76.266 271.791,76.04 272.08,75.75 C272.369,75.461 272.579,75.123 272.71,74.735 C272.84,74.348 272.906,73.93 272.906,73.482 C272.906,72.586 272.614,71.886 272.031,71.383 C271.447,70.879 270.544,70.626 269.322,70.626 L267.418,70.626 L267.418,76.674 L267.418,76.674 Z M267.418,79.936 L267.418,87.482 L262.686,87.482 L262.686,67.084 L269.322,67.084 C270.796,67.084 272.054,67.236 273.094,67.539 C274.135,67.843 274.985,68.265 275.643,68.806 C276.3,69.347 276.779,69.987 277.078,70.724 C277.376,71.462 277.526,72.264 277.526,73.132 C277.526,73.795 277.437,74.421 277.259,75.008 C277.083,75.596 276.819,76.14 276.468,76.639 C276.119,77.138 275.689,77.584 275.18,77.976 C274.671,78.368 274.086,78.69 273.423,78.942 C273.741,79.101 274.038,79.297 274.313,79.53 C274.587,79.763 274.829,80.049 275.034,80.385 L279.374,87.482 L275.089,87.482 C274.296,87.482 273.727,87.183 273.381,86.586 L269.994,80.664 C269.844,80.403 269.669,80.216 269.468,80.104 C269.268,79.992 268.986,79.936 268.622,79.936 L267.418,79.936 L267.418,79.936 Z" id="Fill-17" fill="#7C9095"></path>
            <polyline id="Fill-18" fill="#7C9095" points="294.857 67.084 294.857 70.724 286.485 70.724 286.485 75.484 292.897 75.484 292.897 78.984 286.485 78.984 286.485 83.842 294.857 83.842 294.857 87.482 281.725 87.482 281.725 67.084 294.857 67.084"></polyline>
            <path d="M324.606,50.677 C330.515,48.447 337.732,46.707 345.736,47.403 C353.81,48.455 362.601,51.587 371.234,56.965 C381.316,63.544 392.51,66.589 402.051,65.884 C405.588,65.612 408.888,64.948 411.932,63.976 L411.932,10.236 C411.932,4.842 407.455,0.468 401.932,0.468 L329.483,0.468 C323.96,0.468 319.483,4.842 319.483,10.236 L319.483,53.19 C321.028,52.31 322.71,51.454 324.606,50.677" id="Fill-19" fill="#7C9095"></path>
            <path d="M345.736,47.403 C353.81,48.455 362.601,51.587 371.234,56.965 C381.317,63.544 392.51,66.589 402.051,65.884 C402.852,65.823 403.637,65.734 404.414,65.634 L404.414,12.695 C404.414,9.998 402.175,7.812 399.414,7.812 L332.001,7.812 C329.24,7.812 327.001,9.998 327.001,12.695 L327.001,49.829 C332.424,48.033 338.783,46.799 345.736,47.403" id="Fill-20" fill="#DEE4E1"></path>
            <path d="M411.932,83 L411.932,69.664 C410.872,70.317 409.747,70.974 408.619,71.563 C403.132,74.764 395.8,76.7 387.341,76.261 C379.138,75.812 370.041,72.439 362.368,66.581 C355.763,61.753 348.719,58.56 342.001,56.968 C335.293,55.646 328.923,56.193 323.599,57.233 C322.111,57.562 320.751,57.95 319.483,58.367 L319.483,83 C319.483,88.523 323.96,93 329.483,93 L401.932,93 C407.455,93 411.932,88.523 411.932,83" id="Fill-21" fill="#006592"></path>
            <path d="M402.051,65.85 C392.51,66.554 381.316,63.51 371.234,56.93 C362.601,51.553 353.81,48.421 345.736,47.369 C337.732,46.673 330.515,48.413 324.606,50.642 C322.71,51.42 321.028,52.276 319.484,53.155 L319.484,58.332 C320.752,57.916 322.112,57.528 323.599,57.199 C328.923,56.159 335.293,55.611 342.001,56.934 C348.719,58.526 355.763,61.719 362.368,66.547 C370.041,72.405 379.138,75.778 387.341,76.227 C395.8,76.666 403.132,74.73 408.619,71.529 C409.747,70.939 410.871,70.283 411.931,69.63 L411.931,63.942 C408.888,64.914 405.588,65.578 402.051,65.85" id="Fill-22" fill="#FFFFFF"></path>
        </g>
    </g>
</svg>